<?xml version="1.0" encoding="UTF-8"?>
<svg xmlns="http://www.w3.org/2000/svg" xmlns:xlink="http://www.w3.org/1999/xlink" width="435.7008pt" height="53.0236pt" viewBox="0 0 435.7008 53.0236" version="1.1">
<g id="surface1">
<path style=" stroke:none;fill-rule:nonzero;fill:rgb(9.803772%,21.176147%,36.862183%);fill-opacity:1;" d="M 70.5 45.09375 C 69.148438 45.09375 67.902344 44.78125 66.761719 44.152344 C 65.621094 43.523438 64.710938 42.597656 64.023438 41.367188 C 63.339844 40.136719 62.996094 38.621094 62.996094 36.820313 C 62.996094 35.035156 63.347656 33.511719 64.046875 32.25 C 64.75 30.988281 65.683594 30.019531 66.847656 29.351563 C 68.011719 28.683594 69.269531 28.347656 70.625 28.347656 C 71.664063 28.347656 72.597656 28.558594 73.425781 28.980469 C 74.25 29.402344 74.933594 29.894531 75.480469 30.453125 L 73.546875 32.78125 C 73.136719 32.402344 72.703125 32.09375 72.246094 31.855469 C 71.792969 31.613281 71.277344 31.496094 70.699219 31.496094 C 69.972656 31.496094 69.308594 31.703125 68.707031 32.113281 C 68.101563 32.527344 67.625 33.121094 67.269531 33.898438 C 66.914063 34.671875 66.734375 35.605469 66.734375 36.695313 C 66.734375 38.347656 67.089844 39.636719 67.800781 40.5625 C 68.511719 41.484375 69.460938 41.949219 70.648438 41.949219 C 71.3125 41.949219 71.902344 41.800781 72.421875 41.5 C 72.941406 41.203125 73.398438 40.847656 73.796875 40.4375 L 75.726563 42.714844 C 74.375 44.300781 72.632813 45.09375 70.5 45.09375 "/>
<path style=" stroke:none;fill-rule:nonzero;fill:rgb(9.803772%,21.176147%,36.862183%);fill-opacity:1;" d="M 83.160156 45.09375 C 82.117188 45.09375 81.140625 44.839844 80.222656 44.335938 C 79.308594 43.835938 78.566406 43.097656 78.007813 42.132813 C 77.445313 41.167969 77.164063 40.007813 77.164063 38.652344 C 77.164063 37.28125 77.445313 36.117188 78.007813 35.160156 C 78.566406 34.203125 79.308594 33.472656 80.222656 32.96875 C 81.140625 32.464844 82.117188 32.214844 83.160156 32.214844 C 84.199219 32.214844 85.171875 32.464844 86.082031 32.96875 C 86.988281 33.472656 87.722656 34.203125 88.285156 35.160156 C 88.847656 36.117188 89.128906 37.28125 89.128906 38.652344 C 89.128906 40.007813 88.847656 41.167969 88.285156 42.132813 C 87.722656 43.097656 86.988281 43.835938 86.082031 44.335938 C 85.171875 44.839844 84.199219 45.09375 83.160156 45.09375 Z M 83.160156 42.144531 C 83.902344 42.144531 84.464844 41.828125 84.84375 41.191406 C 85.222656 40.554688 85.414063 39.710938 85.414063 38.652344 C 85.414063 37.578125 85.222656 36.730469 84.84375 36.101563 C 84.464844 35.472656 83.902344 35.160156 83.160156 35.160156 C 82.398438 35.160156 81.832031 35.472656 81.460938 36.101563 C 81.089844 36.730469 80.90625 37.578125 80.90625 38.652344 C 80.90625 39.710938 81.089844 40.554688 81.460938 41.191406 C 81.832031 41.828125 82.398438 42.144531 83.160156 42.144531 "/>
<path style=" stroke:none;fill-rule:nonzero;fill:rgb(9.803772%,21.176147%,36.862183%);fill-opacity:1;" d="M 91.628906 44.796875 L 91.628906 32.511719 L 94.601563 32.511719 L 94.851563 34.070313 L 94.949219 34.070313 C 95.476563 33.574219 96.058594 33.140625 96.695313 32.769531 C 97.332031 32.398438 98.0625 32.214844 98.886719 32.214844 C 100.226563 32.214844 101.195313 32.65625 101.796875 33.539063 C 102.402344 34.421875 102.703125 35.632813 102.703125 37.167969 L 102.703125 44.796875 L 99.0625 44.796875 L 99.0625 37.636719 C 99.0625 36.746094 98.941406 36.136719 98.703125 35.804688 C 98.460938 35.472656 98.078125 35.308594 97.550781 35.308594 C 97.085938 35.308594 96.691406 35.414063 96.359375 35.617188 C 96.03125 35.824219 95.667969 36.117188 95.269531 36.5 L 95.269531 44.796875 Z M 91.628906 44.796875 "/>
<path style=" stroke:none;fill-rule:nonzero;fill:rgb(9.803772%,21.176147%,36.862183%);fill-opacity:1;" d="M 109.414063 45.09375 C 108.605469 45.09375 107.777344 44.9375 106.925781 44.621094 C 106.074219 44.308594 105.335938 43.894531 104.707031 43.382813 L 106.34375 41.105469 C 106.90625 41.519531 107.445313 41.835938 107.964844 42.058594 C 108.484375 42.28125 109 42.394531 109.511719 42.394531 C 110.058594 42.394531 110.453125 42.296875 110.703125 42.109375 C 110.949219 41.917969 111.074219 41.667969 111.074219 41.351563 C 111.074219 41.074219 110.953125 40.839844 110.714844 40.660156 C 110.476563 40.476563 110.164063 40.308594 109.785156 40.152344 C 109.40625 39.996094 109 39.832031 108.574219 39.667969 C 108.078125 39.46875 107.585938 39.222656 107.097656 38.925781 C 106.613281 38.628906 106.203125 38.246094 105.871094 37.773438 C 105.542969 37.304688 105.378906 36.730469 105.378906 36.050781 C 105.378906 34.914063 105.8125 33.988281 106.675781 33.277344 C 107.542969 32.566406 108.679688 32.214844 110.082031 32.214844 C 111.023438 32.214844 111.855469 32.375 112.574219 32.695313 C 113.292969 33.019531 113.90625 33.378906 114.417969 33.773438 L 112.785156 35.953125 C 112.355469 35.625 111.925781 35.367188 111.496094 35.183594 C 111.066406 35.003906 110.636719 34.914063 110.207031 34.914063 C 109.265625 34.914063 108.796875 35.234375 108.796875 35.878906 C 108.796875 36.277344 109.03125 36.578125 109.5 36.78125 C 109.972656 36.988281 110.519531 37.207031 111.148438 37.441406 C 111.675781 37.621094 112.191406 37.855469 112.695313 38.144531 C 113.199219 38.433594 113.621094 38.8125 113.960938 39.285156 C 114.296875 39.753906 114.46875 40.371094 114.46875 41.128906 C 114.46875 42.238281 114.039063 43.171875 113.179688 43.941406 C 112.320313 44.710938 111.066406 45.09375 109.414063 45.09375 "/>
<path style=" stroke:none;fill-rule:nonzero;fill:rgb(9.803772%,21.176147%,36.862183%);fill-opacity:1;" d="M 116.769531 44.796875 L 116.769531 32.511719 L 120.414063 32.511719 L 120.414063 44.796875 Z M 118.578125 30.703125 C 117.96875 30.703125 117.472656 30.527344 117.09375 30.183594 C 116.714844 29.835938 116.523438 29.371094 116.523438 28.792969 C 116.523438 28.21875 116.714844 27.753906 117.09375 27.40625 C 117.472656 27.0625 117.96875 26.886719 118.578125 26.886719 C 119.191406 26.886719 119.6875 27.0625 120.066406 27.40625 C 120.445313 27.753906 120.636719 28.21875 120.636719 28.792969 C 120.636719 29.371094 120.445313 29.835938 120.066406 30.183594 C 119.6875 30.527344 119.191406 30.703125 118.578125 30.703125 "/>
<path style=" stroke:none;fill-rule:nonzero;fill:rgb(9.803772%,21.176147%,36.862183%);fill-opacity:1;" d="M 127.992188 50.023438 C 127.035156 50.023438 126.167969 49.914063 125.390625 49.699219 C 124.613281 49.484375 123.996094 49.148438 123.53125 48.683594 C 123.070313 48.222656 122.839844 47.628906 122.839844 46.902344 C 122.839844 45.910156 123.425781 45.085938 124.597656 44.425781 L 124.597656 44.324219 C 124.285156 44.109375 124.015625 43.839844 123.792969 43.507813 C 123.570313 43.179688 123.460938 42.757813 123.460938 42.246094 C 123.460938 41.800781 123.589844 41.371094 123.855469 40.957031 C 124.121094 40.542969 124.449219 40.207031 124.847656 39.941406 L 124.847656 39.84375 C 124.417969 39.542969 124.03125 39.117188 123.695313 38.554688 C 123.355469 37.992188 123.1875 37.355469 123.1875 36.648438 C 123.1875 35.65625 123.425781 34.835938 123.90625 34.183594 C 124.382813 33.53125 125.011719 33.039063 125.785156 32.707031 C 126.5625 32.378906 127.390625 32.214844 128.265625 32.214844 C 128.992188 32.214844 129.625 32.3125 130.171875 32.511719 L 134.65625 32.511719 L 134.65625 35.160156 L 132.699219 35.160156 C 132.8125 35.34375 132.910156 35.574219 132.984375 35.855469 C 133.058594 36.136719 133.09375 36.441406 133.09375 36.769531 C 133.09375 37.710938 132.878906 38.488281 132.449219 39.097656 C 132.019531 39.710938 131.441406 40.164063 130.714844 40.460938 C 129.988281 40.757813 129.171875 40.90625 128.265625 40.90625 C 127.785156 40.90625 127.289063 40.824219 126.777344 40.660156 C 126.480469 40.90625 126.332031 41.210938 126.332031 41.574219 C 126.332031 41.890625 126.472656 42.121094 126.753906 42.269531 C 127.035156 42.417969 127.511719 42.492188 128.191406 42.492188 L 130.171875 42.492188 C 131.691406 42.492188 132.851563 42.734375 133.652344 43.222656 C 134.453125 43.710938 134.851563 44.507813 134.851563 45.613281 C 134.851563 46.457031 134.570313 47.210938 134.011719 47.878906 C 133.449219 48.546875 132.65625 49.074219 131.632813 49.453125 C 130.609375 49.832031 129.394531 50.023438 127.992188 50.023438 Z M 128.265625 38.703125 C 128.742188 38.703125 129.144531 38.53125 129.464844 38.183594 C 129.789063 37.835938 129.949219 37.324219 129.949219 36.648438 C 129.949219 36.003906 129.789063 35.511719 129.464844 35.171875 C 129.144531 34.835938 128.742188 34.664063 128.265625 34.664063 C 127.785156 34.664063 127.386719 34.832031 127.0625 35.160156 C 126.742188 35.492188 126.578125 35.984375 126.578125 36.648438 C 126.578125 37.324219 126.742188 37.835938 127.0625 38.183594 C 127.386719 38.53125 127.785156 38.703125 128.265625 38.703125 Z M 128.5625 47.742188 C 129.386719 47.742188 130.0625 47.59375 130.59375 47.296875 C 131.121094 47 131.386719 46.644531 131.386719 46.234375 C 131.386719 45.851563 131.222656 45.597656 130.902344 45.464844 C 130.582031 45.332031 130.113281 45.265625 129.503906 45.265625 L 128.238281 45.265625 C 127.828125 45.265625 127.484375 45.253906 127.210938 45.230469 C 126.9375 45.203125 126.703125 45.167969 126.503906 45.117188 C 126.058594 45.515625 125.835938 45.917969 125.835938 46.332031 C 125.835938 46.792969 126.089844 47.144531 126.59375 47.382813 C 127.097656 47.625 127.753906 47.742188 128.5625 47.742188 "/>
<path style=" stroke:none;fill-rule:nonzero;fill:rgb(9.803772%,21.176147%,36.862183%);fill-opacity:1;" d="M 140.179688 45.09375 C 138.921875 45.09375 138.050781 44.71875 137.566406 43.964844 C 137.078125 43.214844 136.835938 42.21875 136.835938 40.980469 L 136.835938 27.433594 L 140.476563 27.433594 L 140.476563 41.128906 C 140.476563 41.511719 140.546875 41.773438 140.6875 41.921875 C 140.828125 42.070313 140.972656 42.144531 141.121094 42.144531 C 141.203125 42.144531 141.273438 42.140625 141.332031 42.132813 C 141.386719 42.125 141.464844 42.113281 141.566406 42.097656 L 142.011719 44.796875 C 141.8125 44.878906 141.5625 44.949219 141.257813 45.007813 C 140.949219 45.066406 140.589844 45.09375 140.179688 45.09375 "/>
<path style=" stroke:none;fill-rule:nonzero;fill:rgb(9.803772%,21.176147%,36.862183%);fill-opacity:1;" d="M 143.917969 44.796875 L 143.917969 32.511719 L 147.558594 32.511719 L 147.558594 44.796875 Z M 145.726563 30.703125 C 145.117188 30.703125 144.621094 30.527344 144.242188 30.183594 C 143.859375 29.835938 143.671875 29.371094 143.671875 28.792969 C 143.671875 28.21875 143.859375 27.753906 144.242188 27.40625 C 144.621094 27.0625 145.117188 26.886719 145.726563 26.886719 C 146.335938 26.886719 146.832031 27.0625 147.214844 27.40625 C 147.59375 27.753906 147.78125 28.21875 147.78125 28.792969 C 147.78125 29.371094 147.59375 29.835938 147.214844 30.183594 C 146.832031 30.527344 146.335938 30.703125 145.726563 30.703125 "/>
<path style=" stroke:none;fill-rule:nonzero;fill:rgb(9.803772%,21.176147%,36.862183%);fill-opacity:1;" d="M 156.03125 45.09375 C 154.992188 45.09375 154.011719 44.839844 153.09375 44.335938 C 152.179688 43.835938 151.441406 43.097656 150.878906 42.132813 C 150.316406 41.167969 150.035156 40.007813 150.035156 38.652344 C 150.035156 37.28125 150.316406 36.117188 150.878906 35.160156 C 151.441406 34.203125 152.179688 33.472656 153.09375 32.96875 C 154.011719 32.464844 154.992188 32.214844 156.03125 32.214844 C 157.070313 32.214844 158.046875 32.464844 158.953125 32.96875 C 159.863281 33.472656 160.597656 34.203125 161.15625 35.160156 C 161.71875 36.117188 162 37.28125 162 38.652344 C 162 40.007813 161.71875 41.167969 161.15625 42.132813 C 160.597656 43.097656 159.863281 43.835938 158.953125 44.335938 C 158.046875 44.839844 157.070313 45.09375 156.03125 45.09375 Z M 156.03125 42.144531 C 156.773438 42.144531 157.335938 41.828125 157.714844 41.191406 C 158.09375 40.554688 158.285156 39.710938 158.285156 38.652344 C 158.285156 37.578125 158.09375 36.730469 157.714844 36.101563 C 157.335938 35.472656 156.773438 35.160156 156.03125 35.160156 C 155.269531 35.160156 154.707031 35.472656 154.335938 36.101563 C 153.960938 36.730469 153.777344 37.578125 153.777344 38.652344 C 153.777344 39.710938 153.960938 40.554688 154.335938 41.191406 C 154.707031 41.828125 155.269531 42.144531 156.03125 42.144531 "/>
<path style=" stroke:none;fill-rule:nonzero;fill:rgb(9.803772%,21.176147%,36.862183%);fill-opacity:1;" d="M 169.753906 44.796875 L 169.753906 28.644531 L 173.492188 28.644531 L 177.703125 36.671875 L 179.289063 40.238281 L 179.386719 40.238281 C 179.324219 39.378906 179.230469 38.421875 179.117188 37.363281 C 179 36.308594 178.941406 35.300781 178.941406 34.34375 L 178.941406 28.644531 L 182.410156 28.644531 L 182.410156 44.796875 L 178.671875 44.796875 L 174.460938 36.746094 L 172.875 33.230469 L 172.773438 33.230469 C 172.859375 34.121094 172.953125 35.078125 173.058594 36.101563 C 173.167969 37.125 173.222656 38.117188 173.222656 39.074219 L 173.222656 44.796875 Z M 169.753906 44.796875 "/>
<path style=" stroke:none;fill-rule:nonzero;fill:rgb(9.803772%,21.176147%,36.862183%);fill-opacity:1;" d="M 189.023438 45.09375 C 187.902344 45.09375 187.007813 44.734375 186.347656 44.015625 C 185.6875 43.296875 185.359375 42.417969 185.359375 41.378906 C 185.359375 40.089844 185.902344 39.082031 186.992188 38.355469 C 188.082031 37.628906 189.839844 37.140625 192.269531 36.894531 C 192.234375 36.351563 192.074219 35.917969 191.785156 35.59375 C 191.496094 35.273438 191.015625 35.109375 190.335938 35.109375 C 189.824219 35.109375 189.304688 35.210938 188.777344 35.410156 C 188.246094 35.605469 187.6875 35.878906 187.09375 36.226563 L 185.777344 33.824219 C 186.554688 33.34375 187.386719 32.957031 188.269531 32.660156 C 189.152344 32.363281 190.074219 32.214844 191.03125 32.214844 C 192.597656 32.214844 193.804688 32.667969 194.648438 33.574219 C 195.488281 34.484375 195.910156 35.878906 195.910156 37.761719 L 195.910156 44.796875 L 192.9375 44.796875 L 192.691406 43.53125 L 192.589844 43.53125 C 192.078125 43.996094 191.53125 44.371094 190.945313 44.660156 C 190.355469 44.949219 189.71875 45.09375 189.023438 45.09375 Z M 190.261719 42.269531 C 190.675781 42.269531 191.035156 42.175781 191.339844 41.984375 C 191.644531 41.792969 191.957031 41.542969 192.269531 41.230469 L 192.269531 39.074219 C 190.980469 39.238281 190.089844 39.5 189.59375 39.855469 C 189.097656 40.210938 188.851563 40.625 188.851563 41.105469 C 188.851563 41.5 188.976563 41.792969 189.234375 41.984375 C 189.492188 42.175781 189.832031 42.269531 190.261719 42.269531 "/>
<path style=" stroke:none;fill-rule:nonzero;fill:rgb(9.803772%,21.176147%,36.862183%);fill-opacity:1;" d="M 198.3125 44.796875 L 198.3125 42.839844 L 203.464844 35.359375 L 198.882813 35.359375 L 198.882813 32.511719 L 207.996094 32.511719 L 207.996094 34.441406 L 202.84375 41.949219 L 208.171875 41.949219 L 208.171875 44.796875 Z M 198.3125 44.796875 "/>
<path style=" stroke:none;fill-rule:nonzero;fill:rgb(9.803772%,21.176147%,36.862183%);fill-opacity:1;" d="M 210.375 44.796875 L 210.375 32.511719 L 214.015625 32.511719 L 214.015625 44.796875 Z M 212.183594 30.703125 C 211.574219 30.703125 211.078125 30.527344 210.699219 30.183594 C 210.316406 29.835938 210.128906 29.371094 210.128906 28.792969 C 210.128906 28.21875 210.316406 27.753906 210.699219 27.40625 C 211.078125 27.0625 211.574219 26.886719 212.183594 26.886719 C 212.792969 26.886719 213.289063 27.0625 213.667969 27.40625 C 214.050781 27.753906 214.238281 28.21875 214.238281 28.792969 C 214.238281 29.371094 214.050781 29.835938 213.667969 30.183594 C 213.289063 30.527344 212.792969 30.703125 212.183594 30.703125 "/>
<path style=" stroke:none;fill-rule:nonzero;fill:rgb(9.803772%,21.176147%,36.862183%);fill-opacity:1;" d="M 222.488281 45.09375 C 221.449219 45.09375 220.46875 44.839844 219.550781 44.335938 C 218.636719 43.835938 217.898438 43.097656 217.335938 42.132813 C 216.773438 41.167969 216.492188 40.007813 216.492188 38.652344 C 216.492188 37.28125 216.773438 36.117188 217.335938 35.160156 C 217.898438 34.203125 218.636719 33.472656 219.550781 32.96875 C 220.46875 32.464844 221.449219 32.214844 222.488281 32.214844 C 223.527344 32.214844 224.503906 32.464844 225.410156 32.96875 C 226.320313 33.472656 227.054688 34.203125 227.613281 35.160156 C 228.175781 36.117188 228.457031 37.28125 228.457031 38.652344 C 228.457031 40.007813 228.175781 41.167969 227.613281 42.132813 C 227.054688 43.097656 226.320313 43.835938 225.410156 44.335938 C 224.503906 44.839844 223.527344 45.09375 222.488281 45.09375 Z M 222.488281 42.144531 C 223.230469 42.144531 223.792969 41.828125 224.171875 41.191406 C 224.550781 40.554688 224.742188 39.710938 224.742188 38.652344 C 224.742188 37.578125 224.550781 36.730469 224.171875 36.101563 C 223.792969 35.472656 223.230469 35.160156 222.488281 35.160156 C 221.726563 35.160156 221.164063 35.472656 220.792969 36.101563 C 220.417969 36.730469 220.234375 37.578125 220.234375 38.652344 C 220.234375 39.710938 220.417969 40.554688 220.792969 41.191406 C 221.164063 41.828125 221.726563 42.144531 222.488281 42.144531 "/>
<path style=" stroke:none;fill-rule:nonzero;fill:rgb(9.803772%,21.176147%,36.862183%);fill-opacity:1;" d="M 230.957031 44.796875 L 230.957031 32.511719 L 233.929688 32.511719 L 234.179688 34.070313 L 234.277344 34.070313 C 234.804688 33.574219 235.386719 33.140625 236.023438 32.769531 C 236.660156 32.398438 237.390625 32.214844 238.214844 32.214844 C 239.554688 32.214844 240.523438 32.65625 241.125 33.539063 C 241.730469 34.421875 242.03125 35.632813 242.03125 37.167969 L 242.03125 44.796875 L 238.390625 44.796875 L 238.390625 37.636719 C 238.390625 36.746094 238.269531 36.136719 238.03125 35.804688 C 237.792969 35.472656 237.40625 35.308594 236.878906 35.308594 C 236.417969 35.308594 236.019531 35.414063 235.691406 35.617188 C 235.359375 35.824219 234.996094 36.117188 234.601563 36.5 L 234.601563 44.796875 Z M 230.957031 44.796875 "/>
<path style=" stroke:none;fill-rule:nonzero;fill:rgb(9.803772%,21.176147%,36.862183%);fill-opacity:1;" d="M 248.222656 45.09375 C 247.101563 45.09375 246.210938 44.734375 245.546875 44.015625 C 244.886719 43.296875 244.558594 42.417969 244.558594 41.378906 C 244.558594 40.089844 245.101563 39.082031 246.191406 38.355469 C 247.28125 37.628906 249.039063 37.140625 251.46875 36.894531 C 251.433594 36.351563 251.273438 35.917969 250.984375 35.59375 C 250.695313 35.273438 250.214844 35.109375 249.535156 35.109375 C 249.023438 35.109375 248.503906 35.210938 247.976563 35.410156 C 247.449219 35.605469 246.886719 35.878906 246.292969 36.226563 L 244.980469 33.824219 C 245.753906 33.34375 246.585938 32.957031 247.46875 32.660156 C 248.351563 32.363281 249.273438 32.214844 250.230469 32.214844 C 251.796875 32.214844 253.003906 32.667969 253.847656 33.574219 C 254.6875 34.484375 255.109375 35.878906 255.109375 37.761719 L 255.109375 44.796875 L 252.136719 44.796875 L 251.890625 43.53125 L 251.789063 43.53125 C 251.277344 43.996094 250.730469 44.371094 250.144531 44.660156 C 249.558594 44.949219 248.917969 45.09375 248.222656 45.09375 Z M 249.460938 42.269531 C 249.875 42.269531 250.234375 42.175781 250.539063 41.984375 C 250.84375 41.792969 251.15625 41.542969 251.46875 41.230469 L 251.46875 39.074219 C 250.179688 39.238281 249.289063 39.5 248.792969 39.855469 C 248.296875 40.210938 248.050781 40.625 248.050781 41.105469 C 248.050781 41.5 248.179688 41.792969 248.433594 41.984375 C 248.691406 42.175781 249.03125 42.269531 249.460938 42.269531 "/>
<path style=" stroke:none;fill-rule:nonzero;fill:rgb(9.803772%,21.176147%,36.862183%);fill-opacity:1;" d="M 261.523438 45.09375 C 260.269531 45.09375 259.398438 44.71875 258.910156 43.964844 C 258.425781 43.214844 258.179688 42.21875 258.179688 40.980469 L 258.179688 27.433594 L 261.820313 27.433594 L 261.820313 41.128906 C 261.820313 41.511719 261.890625 41.773438 262.03125 41.921875 C 262.171875 42.070313 262.316406 42.144531 262.464844 42.144531 C 262.546875 42.144531 262.617188 42.140625 262.675781 42.132813 C 262.734375 42.125 262.8125 42.113281 262.910156 42.097656 L 263.359375 44.796875 C 263.160156 44.878906 262.90625 44.949219 262.601563 45.007813 C 262.296875 45.066406 261.9375 45.09375 261.523438 45.09375 "/>
<path style=" stroke:none;fill-rule:nonzero;fill:rgb(9.803772%,21.176147%,36.862183%);fill-opacity:1;" d="M 270.765625 45.09375 C 269.589844 45.09375 268.535156 44.835938 267.59375 44.324219 C 266.652344 43.8125 265.910156 43.078125 265.363281 42.121094 C 264.820313 41.164063 264.546875 40.007813 264.546875 38.652344 C 264.546875 37.316406 264.824219 36.167969 265.375 35.210938 C 265.929688 34.253906 266.652344 33.511719 267.542969 32.992188 C 268.433594 32.472656 269.367188 32.214844 270.34375 32.214844 C 271.515625 32.214844 272.484375 32.472656 273.253906 32.992188 C 274.019531 33.511719 274.597656 34.214844 274.988281 35.097656 C 275.375 35.980469 275.570313 36.984375 275.570313 38.109375 C 275.570313 38.421875 275.550781 38.730469 275.519531 39.039063 C 275.488281 39.34375 275.453125 39.570313 275.421875 39.71875 L 268.0625 39.71875 C 268.230469 40.609375 268.601563 41.265625 269.179688 41.6875 C 269.757813 42.109375 270.449219 42.320313 271.257813 42.320313 C 272.132813 42.320313 273.019531 42.046875 273.910156 41.5 L 275.125 43.707031 C 274.496094 44.136719 273.792969 44.472656 273.019531 44.722656 C 272.242188 44.96875 271.492188 45.09375 270.765625 45.09375 Z M 268.039063 37.316406 L 272.472656 37.316406 C 272.472656 36.636719 272.3125 36.082031 271.988281 35.644531 C 271.667969 35.207031 271.144531 34.988281 270.417969 34.988281 C 269.855469 34.988281 269.351563 35.179688 268.90625 35.570313 C 268.460938 35.957031 268.171875 36.539063 268.039063 37.316406 "/>
<path style=" stroke:none;fill-rule:nonzero;fill:rgb(9.803772%,21.176147%,36.862183%);fill-opacity:1;" d="M 339.25 44.796875 L 339.25 28.644531 L 345.070313 28.644531 C 346.210938 28.644531 347.253906 28.800781 348.191406 29.105469 C 349.132813 29.410156 349.886719 29.925781 350.445313 30.652344 C 351.007813 31.378906 351.289063 32.386719 351.289063 33.675781 C 351.289063 34.863281 351.03125 35.839844 350.507813 36.609375 C 349.988281 37.378906 349.292969 37.953125 348.417969 38.332031 L 352.082031 44.796875 L 347.996094 44.796875 L 344.898438 38.976563 L 342.894531 38.976563 L 342.894531 44.796875 Z M 342.894531 36.078125 L 344.773438 36.078125 C 345.734375 36.078125 346.464844 35.875 346.96875 35.46875 C 347.472656 35.066406 347.722656 34.46875 347.722656 33.675781 C 347.722656 32.882813 347.472656 32.328125 346.96875 32.015625 C 346.464844 31.703125 345.734375 31.542969 344.773438 31.542969 L 342.894531 31.542969 Z M 342.894531 36.078125 "/>
<path style=" stroke:none;fill-rule:nonzero;fill:rgb(9.803772%,21.176147%,36.862183%);fill-opacity:1;" d="M 354.136719 44.796875 L 354.136719 32.511719 L 357.777344 32.511719 L 357.777344 44.796875 Z M 355.945313 30.703125 C 355.335938 30.703125 354.839844 30.527344 354.460938 30.183594 C 354.082031 29.835938 353.890625 29.371094 353.890625 28.792969 C 353.890625 28.21875 354.082031 27.753906 354.460938 27.40625 C 354.839844 27.0625 355.335938 26.886719 355.945313 26.886719 C 356.558594 26.886719 357.050781 27.0625 357.433594 27.40625 C 357.8125 27.753906 358 28.21875 358 28.792969 C 358 29.371094 357.8125 29.835938 357.433594 30.183594 C 357.050781 30.527344 356.558594 30.703125 355.945313 30.703125 "/>
<path style=" stroke:none;fill-rule:nonzero;fill:rgb(9.803772%,21.176147%,36.862183%);fill-opacity:1;" d="M 366.324219 45.09375 C 365.183594 45.09375 364.15625 44.839844 363.242188 44.335938 C 362.324219 43.835938 361.597656 43.097656 361.0625 42.132813 C 360.523438 41.167969 360.257813 40.007813 360.257813 38.652344 C 360.257813 37.28125 360.554688 36.117188 361.148438 35.160156 C 361.742188 34.203125 362.527344 33.472656 363.5 32.96875 C 364.476563 32.464844 365.523438 32.214844 366.644531 32.214844 C 367.40625 32.214844 368.078125 32.335938 368.664063 32.585938 C 369.25 32.832031 369.777344 33.144531 370.238281 33.527344 L 368.527344 35.878906 C 367.949219 35.398438 367.398438 35.160156 366.871094 35.160156 C 365.992188 35.160156 365.296875 35.472656 364.777344 36.101563 C 364.257813 36.730469 363.996094 37.578125 363.996094 38.652344 C 363.996094 39.710938 364.257813 40.554688 364.777344 41.191406 C 365.296875 41.828125 365.953125 42.144531 366.746094 42.144531 C 367.140625 42.144531 367.53125 42.058594 367.910156 41.886719 C 368.289063 41.710938 368.636719 41.5 368.949219 41.253906 L 370.386719 43.632813 C 369.777344 44.160156 369.113281 44.535156 368.40625 44.757813 C 367.695313 44.980469 367 45.09375 366.324219 45.09375 "/>
<path style=" stroke:none;fill-rule:nonzero;fill:rgb(9.803772%,21.176147%,36.862183%);fill-opacity:1;" d="M 377.347656 45.09375 C 376.175781 45.09375 375.117188 44.835938 374.175781 44.324219 C 373.234375 43.8125 372.492188 43.078125 371.945313 42.121094 C 371.402344 41.164063 371.128906 40.007813 371.128906 38.652344 C 371.128906 37.316406 371.40625 36.167969 371.960938 35.210938 C 372.511719 34.253906 373.234375 33.511719 374.128906 32.992188 C 375.019531 32.472656 375.953125 32.214844 376.925781 32.214844 C 378.097656 32.214844 379.070313 32.472656 379.835938 32.992188 C 380.605469 33.511719 381.183594 34.214844 381.570313 35.097656 C 381.957031 35.980469 382.152344 36.984375 382.152344 38.109375 C 382.152344 38.421875 382.136719 38.730469 382.101563 39.039063 C 382.070313 39.34375 382.035156 39.570313 382.003906 39.71875 L 374.648438 39.71875 C 374.8125 40.609375 375.183594 41.265625 375.761719 41.6875 C 376.339844 42.109375 377.035156 42.320313 377.84375 42.320313 C 378.71875 42.320313 379.601563 42.046875 380.492188 41.5 L 381.707031 43.707031 C 381.078125 44.136719 380.378906 44.472656 379.601563 44.722656 C 378.824219 44.96875 378.074219 45.09375 377.347656 45.09375 Z M 374.621094 37.316406 L 379.054688 37.316406 C 379.054688 36.636719 378.894531 36.082031 378.574219 35.644531 C 378.25 35.207031 377.726563 34.988281 377 34.988281 C 376.4375 34.988281 375.933594 35.179688 375.488281 35.570313 C 375.042969 35.957031 374.753906 36.539063 374.621094 37.316406 "/>
<path style=" stroke:none;fill-rule:nonzero;fill:rgb(9.803772%,21.176147%,36.862183%);fill-opacity:1;" d="M 384.679688 44.796875 L 384.679688 32.511719 L 387.652344 32.511719 L 387.898438 34.664063 L 387.996094 34.664063 C 388.445313 33.839844 388.980469 33.222656 389.609375 32.820313 C 390.234375 32.414063 390.863281 32.214844 391.492188 32.214844 C 391.835938 32.214844 392.125 32.234375 392.355469 32.273438 C 392.589844 32.316406 392.785156 32.378906 392.953125 32.460938 L 392.355469 35.605469 C 392.144531 35.539063 391.933594 35.492188 391.726563 35.457031 C 391.519531 35.425781 391.285156 35.410156 391.019531 35.410156 C 390.558594 35.410156 390.074219 35.578125 389.570313 35.917969 C 389.066406 36.253906 388.648438 36.835938 388.320313 37.664063 L 388.320313 44.796875 Z M 384.679688 44.796875 "/>
<path style=" stroke:none;fill-rule:nonzero;fill:rgb(9.803772%,21.176147%,36.862183%);fill-opacity:1;" d="M 399.640625 45.09375 C 398.5 45.09375 397.472656 44.839844 396.554688 44.335938 C 395.640625 43.835938 394.914063 43.097656 394.375 42.132813 C 393.839844 41.167969 393.570313 40.007813 393.570313 38.652344 C 393.570313 37.28125 393.867188 36.117188 394.464844 35.160156 C 395.058594 34.203125 395.84375 33.472656 396.816406 32.96875 C 397.789063 32.464844 398.839844 32.214844 399.960938 32.214844 C 400.722656 32.214844 401.394531 32.335938 401.980469 32.585938 C 402.566406 32.832031 403.089844 33.144531 403.554688 33.527344 L 401.84375 35.878906 C 401.265625 35.398438 400.714844 35.160156 400.183594 35.160156 C 399.308594 35.160156 398.613281 35.472656 398.089844 36.101563 C 397.570313 36.730469 397.3125 37.578125 397.3125 38.652344 C 397.3125 39.710938 397.570313 40.554688 398.089844 41.191406 C 398.613281 41.828125 399.269531 42.144531 400.0625 42.144531 C 400.457031 42.144531 400.84375 42.058594 401.226563 41.886719 C 401.605469 41.710938 401.953125 41.5 402.265625 41.253906 L 403.703125 43.632813 C 403.089844 44.160156 402.429688 44.535156 401.71875 44.757813 C 401.011719 44.980469 400.316406 45.09375 399.640625 45.09375 "/>
<path style=" stroke:none;fill-rule:nonzero;fill:rgb(9.803772%,21.176147%,36.862183%);fill-opacity:1;" d="M 405.855469 44.796875 L 405.855469 27.433594 L 409.496094 27.433594 L 409.496094 31.691406 L 409.324219 33.898438 C 409.785156 33.484375 410.328125 33.101563 410.945313 32.746094 C 411.566406 32.390625 412.289063 32.214844 413.113281 32.214844 C 414.453125 32.214844 415.421875 32.65625 416.023438 33.539063 C 416.628906 34.421875 416.929688 35.632813 416.929688 37.167969 L 416.929688 44.796875 L 413.289063 44.796875 L 413.289063 37.636719 C 413.289063 36.746094 413.167969 36.136719 412.929688 35.804688 C 412.6875 35.472656 412.304688 35.308594 411.777344 35.308594 C 411.3125 35.308594 410.917969 35.414063 410.589844 35.617188 C 410.257813 35.824219 409.894531 36.117188 409.496094 36.5 L 409.496094 44.796875 Z M 405.855469 44.796875 "/>
<path style=" stroke:none;fill-rule:nonzero;fill:rgb(9.803772%,21.176147%,36.862183%);fill-opacity:1;" d="M 425.5 45.09375 C 424.328125 45.09375 423.269531 44.835938 422.328125 44.324219 C 421.386719 43.8125 420.644531 43.078125 420.097656 42.121094 C 419.554688 41.164063 419.28125 40.007813 419.28125 38.652344 C 419.28125 37.316406 419.558594 36.167969 420.113281 35.210938 C 420.664063 34.253906 421.386719 33.511719 422.277344 32.992188 C 423.171875 32.472656 424.105469 32.214844 425.078125 32.214844 C 426.25 32.214844 427.21875 32.472656 427.988281 32.992188 C 428.757813 33.511719 429.335938 34.214844 429.722656 35.097656 C 430.109375 35.980469 430.304688 36.984375 430.304688 38.109375 C 430.304688 38.421875 430.289063 38.730469 430.253906 39.039063 C 430.222656 39.34375 430.1875 39.570313 430.15625 39.71875 L 422.800781 39.71875 C 422.964844 40.609375 423.335938 41.265625 423.914063 41.6875 C 424.492188 42.109375 425.183594 42.320313 425.996094 42.320313 C 426.871094 42.320313 427.753906 42.046875 428.644531 41.5 L 429.859375 43.707031 C 429.230469 44.136719 428.527344 44.472656 427.753906 44.722656 C 426.976563 44.96875 426.226563 45.09375 425.5 45.09375 Z M 422.773438 37.316406 L 427.207031 37.316406 C 427.207031 36.636719 427.046875 36.082031 426.726563 35.644531 C 426.402344 35.207031 425.878906 34.988281 425.152344 34.988281 C 424.589844 34.988281 424.085938 35.179688 423.640625 35.570313 C 423.195313 35.957031 422.90625 36.539063 422.773438 37.316406 "/>
<path style=" stroke:none;fill-rule:nonzero;fill:rgb(9.803772%,21.176147%,36.862183%);fill-opacity:1;" d="M 287.582031 45.09375 C 286.078125 45.09375 284.875 44.542969 283.964844 43.445313 C 283.058594 42.347656 282.605469 40.800781 282.605469 38.800781 C 282.605469 37.496094 282.847656 36.371094 283.335938 35.421875 C 283.820313 34.472656 284.464844 33.742188 285.265625 33.230469 C 286.066406 32.71875 286.921875 32.460938 287.832031 32.460938 C 288.523438 32.460938 289.125 32.585938 289.636719 32.832031 C 290.148438 33.078125 290.671875 33.417969 291.199219 33.847656 L 291.097656 31.792969 L 291.097656 27.160156 L 293.15625 27.160156 L 293.15625 44.796875 L 291.472656 44.796875 L 291.296875 43.382813 L 291.222656 43.382813 C 290.761719 43.847656 290.214844 44.246094 289.589844 44.585938 C 288.960938 44.925781 288.292969 45.09375 287.582031 45.09375 Z M 288.027344 43.382813 C 289.085938 43.382813 290.109375 42.832031 291.097656 41.726563 L 291.097656 35.433594 C 290.585938 34.96875 290.097656 34.644531 289.625 34.453125 C 289.15625 34.265625 288.671875 34.167969 288.175781 34.167969 C 287.53125 34.167969 286.949219 34.363281 286.429688 34.753906 C 285.910156 35.140625 285.492188 35.675781 285.179688 36.363281 C 284.867188 37.046875 284.707031 37.851563 284.707031 38.777344 C 284.707031 40.214844 284.996094 41.339844 285.574219 42.15625 C 286.152344 42.976563 286.972656 43.382813 288.027344 43.382813 "/>
<path style=" stroke:none;fill-rule:nonzero;fill:rgb(9.803772%,21.176147%,36.862183%);fill-opacity:1;" d="M 302.097656 45.09375 C 301.023438 45.09375 300.050781 44.839844 299.175781 44.335938 C 298.300781 43.835938 297.605469 43.113281 297.09375 42.171875 C 296.582031 41.230469 296.324219 40.105469 296.324219 38.800781 C 296.324219 37.480469 296.585938 36.351563 297.105469 35.410156 C 297.625 34.46875 298.300781 33.742188 299.125 33.230469 C 299.949219 32.71875 300.816406 32.460938 301.726563 32.460938 C 303.261719 32.460938 304.445313 32.972656 305.28125 33.996094 C 306.113281 35.019531 306.53125 36.390625 306.53125 38.109375 C 306.53125 38.324219 306.527344 38.535156 306.519531 38.738281 C 306.511719 38.945313 306.488281 39.125 306.457031 39.273438 L 298.332031 39.273438 C 298.414063 40.542969 298.816406 41.558594 299.535156 42.320313 C 300.253906 43.078125 301.1875 43.457031 302.34375 43.457031 C 302.921875 43.457031 303.457031 43.371094 303.941406 43.199219 C 304.429688 43.023438 304.894531 42.796875 305.34375 42.515625 L 306.0625 43.855469 C 305.546875 44.183594 304.964844 44.472656 304.3125 44.722656 C 303.660156 44.96875 302.921875 45.09375 302.097656 45.09375 Z M 298.308594 37.8125 L 304.746094 37.8125 C 304.746094 36.589844 304.488281 35.660156 303.96875 35.023438 C 303.449219 34.390625 302.714844 34.070313 301.777344 34.070313 C 300.933594 34.070313 300.175781 34.398438 299.507813 35.050781 C 298.839844 35.703125 298.441406 36.621094 298.308594 37.8125 "/>
<path style=" stroke:none;fill-rule:nonzero;fill:rgb(9.803772%,21.176147%,36.862183%);fill-opacity:1;" d="M 311.660156 45.09375 C 310.898438 45.09375 310.351563 44.859375 310.011719 44.386719 C 309.671875 43.917969 309.503906 43.242188 309.503906 42.367188 L 309.503906 27.160156 L 311.535156 27.160156 L 311.535156 42.515625 C 311.535156 42.832031 311.59375 43.058594 311.707031 43.199219 C 311.824219 43.339844 311.957031 43.410156 312.105469 43.410156 C 312.171875 43.410156 312.230469 43.40625 312.289063 43.398438 C 312.347656 43.386719 312.433594 43.375 312.550781 43.359375 L 312.824219 44.894531 C 312.691406 44.960938 312.535156 45.011719 312.351563 45.042969 C 312.171875 45.078125 311.9375 45.09375 311.660156 45.09375 "/>
<path style=" stroke:none;fill-rule:nonzero;fill:rgb(9.803772%,21.176147%,36.862183%);fill-opacity:1;" d="M 317.972656 45.09375 C 317.214844 45.09375 316.664063 44.859375 316.328125 44.386719 C 315.988281 43.917969 315.820313 43.242188 315.820313 42.367188 L 315.820313 27.160156 L 317.851563 27.160156 L 317.851563 42.515625 C 317.851563 42.832031 317.910156 43.058594 318.023438 43.199219 C 318.140625 43.339844 318.273438 43.410156 318.421875 43.410156 C 318.484375 43.410156 318.546875 43.40625 318.605469 43.398438 C 318.664063 43.386719 318.75 43.375 318.867188 43.359375 L 319.140625 44.894531 C 319.007813 44.960938 318.851563 45.011719 318.667969 45.042969 C 318.484375 45.078125 318.253906 45.09375 317.972656 45.09375 "/>
<path style=" stroke:none;fill-rule:nonzero;fill:rgb(9.803772%,21.176147%,36.862183%);fill-opacity:1;" d="M 327.015625 45.09375 C 325.941406 45.09375 324.96875 44.839844 324.09375 44.335938 C 323.21875 43.835938 322.523438 43.113281 322.011719 42.171875 C 321.5 41.230469 321.242188 40.105469 321.242188 38.800781 C 321.242188 37.480469 321.503906 36.351563 322.023438 35.410156 C 322.542969 34.46875 323.21875 33.742188 324.042969 33.230469 C 324.867188 32.71875 325.734375 32.460938 326.644531 32.460938 C 328.179688 32.460938 329.363281 32.972656 330.199219 33.996094 C 331.03125 35.019531 331.449219 36.390625 331.449219 38.109375 C 331.449219 38.324219 331.445313 38.535156 331.4375 38.738281 C 331.429688 38.945313 331.40625 39.125 331.375 39.273438 L 323.25 39.273438 C 323.332031 40.542969 323.734375 41.558594 324.453125 42.320313 C 325.171875 43.078125 326.105469 43.457031 327.261719 43.457031 C 327.839844 43.457031 328.375 43.371094 328.859375 43.199219 C 329.347656 43.023438 329.8125 42.796875 330.261719 42.515625 L 330.980469 43.855469 C 330.464844 44.183594 329.882813 44.472656 329.230469 44.722656 C 328.578125 44.96875 327.839844 45.09375 327.015625 45.09375 Z M 323.226563 37.8125 L 329.664063 37.8125 C 329.664063 36.589844 329.40625 35.660156 328.886719 35.023438 C 328.367188 34.390625 327.632813 34.070313 326.695313 34.070313 C 325.851563 34.070313 325.09375 34.398438 324.425781 35.050781 C 323.757813 35.703125 323.359375 36.621094 323.226563 37.8125 "/>
<path style=" stroke:none;fill-rule:nonzero;fill:rgb(9.803772%,21.176147%,36.862183%);fill-opacity:1;" d="M 24.960938 45.019531 C 14.164063 45.019531 5.394531 35.613281 5.394531 24.003906 C 5.394531 12.402344 14.148438 3 24.953125 3 L 32.230469 3 L 32.230469 7.363281 L 25.117188 7.363281 C 16.558594 7.363281 9.46875 14.824219 9.46875 24.003906 C 9.46875 33.191406 16.414063 40.644531 24.960938 40.644531 L 41.308594 40.644531 L 41.308594 45.019531 Z M 24.960938 45.019531 "/>
<path style=" stroke:none;fill-rule:nonzero;fill:rgb(9.803772%,21.176147%,36.862183%);fill-opacity:1;" d="M 32.230469 20.464844 L 25.003906 20.464844 C 23.160156 20.464844 21.675781 22.070313 21.675781 24.050781 L 21.675781 37.535156 C 19.75 37.199219 18.757813 36.609375 17.523438 35.773438 L 17.476563 24.171875 C 17.476563 19.734375 20.8125 16.136719 24.945313 16.136719 L 32.230469 16.136719 Z M 32.230469 20.464844 "/>
<path style=" stroke:none;fill-rule:nonzero;fill:rgb(9.803772%,21.176147%,36.862183%);fill-opacity:1;" d="M 33.90625 9.523438 C 41.277344 9.523438 47.28125 15.871094 47.414063 23.757813 L 47.414063 45.019531 L 43.402344 45.019531 L 43.402344 23.707031 C 43.402344 18.109375 39.167969 13.875 33.957031 13.875 L 24.960938 13.875 C 19.757813 13.875 15.460938 18.085938 15.460938 23.683594 L 15.488281 34.011719 C 12.996094 31.382813 11.453125 28.046875 11.453125 24 C 11.453125 15.992188 17.5 9.5 24.957031 9.5 Z M 33.90625 9.523438 "/>
</g>
</svg>
