<svg xmlns="http://www.w3.org/2000/svg" width="701.101" height="81.808"><defs><clipPath clipPathUnits="userSpaceOnUse" id="a"><path d="M0 595.275h841.89V0H0v595.275z"/></clipPath></defs><g clip-path="url(#a)" transform="matrix(1.25 0 0 -1.25 -174.986 535.139)"><path d="M0 0c-16.156 0-29.258 13.086-29.258 29.25 0 16.141 13.086 29.227 29.242 29.227h10.875v-6.063H.227c-12.797 0-23.391-10.383-23.391-23.164C-23.164 16.453-12.781 6.094 0 6.094h24.438V0H0z" style="fill:#0f2a52;fill-opacity:1;fill-rule:nonzero;stroke:none" transform="translate(169.247 369.634)"/><path d="M0 0h-10.797a4.986 4.986 0 0 1-4.984-5v-18.758c-2.875.461-4.36 1.289-6.203 2.445l-.063 16.149c0 6.18 4.977 11.18 11.172 11.18H0V0z" style="fill:#0f2a52;fill-opacity:1;fill-rule:nonzero;stroke:none" transform="translate(180.106 403.814)"/><path d="M0 0c11.023 0 20-8.836 20.195-19.82v-29.586h-5.992v29.656c0 7.797-6.336 13.695-14.133 13.695h-13.437c-7.781 0-14.211-5.859-14.211-13.656l.055-14.375c-3.735 3.664-6.04 8.305-6.04 13.938 0 11.14 9.032 20.171 20.18 20.171L0 0z" style="fill:#0f2a52;fill-opacity:1;fill-rule:nonzero;stroke:none" transform="translate(182.614 419.04)"/></g><g style="font-size:15px"><path d="M162.496 441.11v-2.108c-1.735 1.256-3.17 2.168-4.307 2.736-1.973.957-4.29 1.436-6.952 1.436-4.276 0-7.79-1.376-10.54-4.127-2.722-2.721-4.083-6.22-4.083-10.496 0-4.276 1.376-7.79 4.127-10.54 2.751-2.752 6.25-4.127 10.496-4.127 2.482 0 4.86.463 7.132 1.39a16.234 16.234 0 0 1 4.127 2.512V415.5c-1.227-.957-2.497-1.69-3.813-2.198-2.213-.808-4.695-1.211-7.446-1.211-4.844 0-8.806 1.54-11.886 4.62-3.05 3.05-4.576 6.997-4.576 11.841 0 4.845 1.54 8.807 4.62 11.887 3.05 3.05 6.998 4.575 11.842 4.575a15.8 15.8 0 0 0 1.211-.045c.389 0 .748-.015 1.077-.045 2.87-.269 5.143-1.017 6.818-2.243l2.153-1.57M183.173 435.324c0-2.691-.927-4.964-2.78-6.818-1.854-1.854-4.112-2.78-6.774-2.78-2.69 0-4.948.941-6.773 2.825-1.854 1.854-2.78 4.112-2.78 6.773 0 2.692.926 4.964 2.78 6.818 1.825 1.824 4.082 2.736 6.773 2.736 2.692 0 4.964-.927 6.818-2.78 1.824-1.825 2.736-4.082 2.736-6.774m-1.794 0c0 2.153-.762 3.992-2.287 5.517-1.495 1.496-3.32 2.243-5.473 2.243-2.123 0-3.947-.762-5.472-2.287-1.525-1.526-2.287-3.35-2.287-5.473 0-2.093.777-3.917 2.332-5.472 1.525-1.555 3.334-2.332 5.427-2.332 2.183 0 4.022.762 5.518 2.287 1.495 1.495 2.242 3.334 2.242 5.517M202.102 444.564v-11.258c0-2.363-.613-4.202-1.839-5.517-1.226-1.316-2.99-1.974-5.293-1.974-2.721 0-4.5.822-5.337 2.467v-2.243h-1.84v18.525h1.84v-11.258c0-1.764.463-3.155 1.39-4.172.897-1.016 2.213-1.525 3.947-1.525 3.529 0 5.293 1.959 5.293 5.876v11.08h1.84M218.878 439.496c0-1.675-.643-3.005-1.93-3.992-.328-.24-.821-.509-1.48-.808-.657-.329-1.494-.673-2.511-1.031-1.166-.39-2.019-.793-2.557-1.211-.658-.539-.987-1.226-.987-2.064 0-1.884 1.077-2.826 3.23-2.826 1.585 0 2.886.509 3.902 1.525l1.346-1.166c-1.435-1.435-3.185-2.153-5.248-2.153-1.495 0-2.706.464-3.633 1.39-.957.898-1.436 1.974-1.436 3.23 0 1.466.479 2.587 1.436 3.364.658.539 1.734 1.077 3.23 1.615.807.3 1.48.568 2.018.808.568.209 1.001.403 1.3.583.987.777 1.48 1.69 1.48 2.736 0 2.392-1.405 3.588-4.216 3.588-1.286 0-2.302-.284-3.05-.852-.717-.508-1.33-1.226-1.839-2.153l-1.57.942c1.436 2.601 3.589 3.902 6.46 3.902 1.674 0 3.11-.508 4.305-1.525 1.167-.987 1.75-2.287 1.75-3.902M225.606 421.24c-.24-.987-.733-1.48-1.48-1.48-.987.18-1.48.673-1.48 1.48.03.449.179.807.448 1.076.359.27.703.404 1.032.404.986 0 1.48-.493 1.48-1.48m-.583 23.324V426.04h-1.84v18.525h1.84M248.526 444.16v-18.12h-1.839v3.229c-1.973-2.332-4.44-3.499-7.4-3.499-2.692 0-4.964.927-6.818 2.781-1.825 1.824-2.737 4.082-2.737 6.773 0 2.692.927 4.964 2.781 6.818 1.825 1.824 4.082 2.736 6.773 2.736 2.99 0 5.458-1.166 7.401-3.498v2.736c0 2.302-.642 4.096-1.928 5.382-1.256 1.286-3.035 1.929-5.338 1.929-1.704 0-3.17-.284-4.396-.852-1.555-.718-2.497-1.81-2.826-3.275h-1.839c.987 3.978 4.007 5.966 9.061 5.966 2.721 0 4.92-.837 6.594-2.512 1.674-1.674 2.511-3.872 2.511-6.593m-1.48-8.837c0 2.153-.762 3.992-2.287 5.517-1.495 1.496-3.32 2.243-5.473 2.243-2.123 0-3.947-.762-5.472-2.287-1.525-1.526-2.287-3.35-2.287-5.473 0-2.153.762-3.992 2.287-5.517 1.495-1.495 3.32-2.243 5.472-2.243 2.124 0 3.948.763 5.473 2.288s2.287 3.35 2.287 5.472M256.286 444.564v-33.192h-1.794v33.192h1.794M263.06 421.24c-.24-.987-.733-1.48-1.48-1.48-.988.18-1.481.673-1.481 1.48.03.449.18.807.448 1.076.36.27.703.404 1.032.404.987 0 1.48-.493 1.48-1.48m-.583 23.324V426.04h-1.839v18.525h1.84M286.294 435.324c0-2.691-.927-4.964-2.781-6.818-1.854-1.854-4.112-2.78-6.773-2.78-2.691 0-4.949.941-6.773 2.825-1.854 1.854-2.781 4.112-2.781 6.773 0 2.692.927 4.964 2.78 6.818 1.825 1.824 4.083 2.736 6.774 2.736s4.964-.927 6.818-2.78c1.824-1.825 2.736-4.082 2.736-6.774m-1.794 0c0 2.153-.763 3.992-2.288 5.517-1.495 1.496-3.319 2.243-5.472 2.243-2.123 0-3.947-.762-5.472-2.287-1.525-1.526-2.288-3.35-2.288-5.473 0-2.093.778-3.917 2.333-5.472 1.525-1.555 3.334-2.332 5.427-2.332 2.183 0 4.022.762 5.517 2.287 1.495 1.495 2.243 3.334 2.243 5.517M328.592 445.103v-32.565h-1.84v27.81l-23.907-28.034v32.25h1.794v-27.182l23.953 27.72M351.826 444.564V426.04h-1.839v3.23c-1.973-2.332-4.44-3.499-7.4-3.499-2.692 0-4.965.927-6.818 2.781-1.825 1.824-2.737 4.082-2.737 6.773 0 2.692.927 4.964 2.781 6.818 1.824 1.824 4.082 2.736 6.773 2.736 2.99 0 5.458-1.166 7.401-3.498v3.184h1.84m-1.48-9.24c0 2.153-.763 3.992-2.288 5.517-1.496 1.496-3.32 2.243-5.473 2.243-2.123 0-3.947-.762-5.472-2.287-1.525-1.526-2.287-3.35-2.287-5.473 0-2.153.762-3.992 2.287-5.517 1.495-1.495 3.32-2.243 5.472-2.243 2.123 0 3.948.763 5.473 2.288s2.287 3.35 2.287 5.472M373.357 426.04h-16.193v1.749h12.47l-13.232 16.775h16.73v-1.839h-12.918l13.143-16.686M380.533 421.24c-.239-.987-.732-1.48-1.48-1.48-.987.18-1.48.673-1.48 1.48.03.449.18.807.448 1.076.36.27.703.404 1.032.404.987 0 1.48-.493 1.48-1.48m-.583 23.324V426.04h-1.839v18.525h1.84M403.768 435.324c0-2.691-.927-4.964-2.781-6.818-1.854-1.854-4.112-2.78-6.773-2.78-2.691 0-4.95.941-6.773 2.825-1.854 1.854-2.781 4.112-2.781 6.773 0 2.692.927 4.964 2.78 6.818 1.825 1.824 4.083 2.736 6.774 2.736s4.964-.927 6.818-2.78c1.824-1.825 2.736-4.082 2.736-6.774m-1.794 0c0 2.153-.763 3.992-2.288 5.517-1.495 1.496-3.32 2.243-5.472 2.243-2.123 0-3.947-.762-5.472-2.287-1.525-1.526-2.288-3.35-2.288-5.473 0-2.093.778-3.917 2.332-5.472 1.526-1.555 3.335-2.332 5.428-2.332 2.183 0 4.022.762 5.517 2.287 1.495 1.495 2.243 3.334 2.243 5.517M422.697 444.564v-11.258c0-2.363-.614-4.202-1.84-5.517-1.226-1.316-2.99-1.974-5.292-1.974-2.722 0-4.5.822-5.338 2.467v-2.243h-1.84v18.525h1.84v-11.258c0-1.764.463-3.155 1.39-4.172.898-1.016 2.213-1.525 3.948-1.525 3.528 0 5.292 1.959 5.292 5.876v11.08h1.84M446.02 444.564V426.04h-1.838v3.23c-1.974-2.332-4.44-3.499-7.401-3.499-2.691 0-4.964.927-6.818 2.781-1.824 1.824-2.736 4.082-2.736 6.773 0 2.692.927 4.964 2.78 6.818 1.825 1.824 4.083 2.736 6.774 2.736 2.99 0 5.457-1.166 7.4-3.498v3.184h1.84m-1.48-9.24c0 2.153-.763 3.992-2.288 5.517-1.495 1.496-3.32 2.243-5.472 2.243-2.123 0-3.947-.762-5.472-2.287-1.525-1.526-2.288-3.35-2.288-5.473 0-2.153.763-3.992 2.288-5.517 1.495-1.495 3.319-2.243 5.472-2.243 2.123 0 3.947.763 5.472 2.288 1.525 1.525 2.288 3.35 2.288 5.472M453.78 444.564v-33.192h-1.794v33.192h1.795M477.823 434.92c0-2.72-.912-4.933-2.736-6.638-1.795-1.704-4.067-2.557-6.818-2.557-2.781 0-5.084.912-6.908 2.737-1.794 1.794-2.691 4.081-2.691 6.862 0 2.751.912 5.039 2.736 6.863 1.794 1.824 4.082 2.736 6.863 2.736 1.166 0 2.212-.15 3.14-.448 2.422-.778 4.216-2.273 5.382-4.486l-1.66-.762c-1.016 1.644-2.168 2.736-3.453 3.274-1.017.419-2.153.628-3.41.628-2.451 0-4.38-.748-5.786-2.243-1.345-1.465-2.018-3.454-2.018-5.965h17.359m-2.064-1.75h-15.026c1.196-3.768 3.708-5.651 7.536-5.651 1.824 0 3.438.508 4.844 1.525 1.465 1.046 2.347 2.422 2.646 4.126M511.419 444.564v-33.192h-1.84v18.031c-2.063-2.422-4.575-3.633-7.535-3.633-2.691 0-4.964.927-6.818 2.781-1.824 1.824-2.736 4.082-2.736 6.773 0 2.692.927 4.964 2.781 6.818 1.824 1.824 4.082 2.736 6.773 2.736 3.05 0 5.562-1.21 7.536-3.633v3.32h1.839m-1.615-9.24c0 2.152-.763 3.991-2.288 5.516-1.495 1.496-3.319 2.243-5.472 2.243-2.123 0-3.947-.762-5.472-2.287-1.525-1.526-2.288-3.35-2.288-5.473 0-2.153.763-3.992 2.288-5.517 1.495-1.495 3.32-2.243 5.472-2.243 2.123 0 3.947.763 5.472 2.288 1.525 1.525 2.288 3.35 2.288 5.472M534.609 434.92c0-2.72-.913-4.933-2.737-6.638-1.794-1.704-4.066-2.557-6.817-2.557-2.781 0-5.084.912-6.908 2.737-1.794 1.794-2.691 4.081-2.691 6.862 0 2.751.912 5.039 2.736 6.863 1.794 1.824 4.082 2.736 6.863 2.736 1.166 0 2.212-.15 3.14-.448 2.421-.778 4.216-2.273 5.382-4.486l-1.66-.762c-1.016 1.644-2.168 2.736-3.454 3.274-1.016.419-2.153.628-3.408.628-2.453 0-4.381-.748-5.787-2.243-1.345-1.465-2.018-3.454-2.018-5.965h17.359m-2.064-1.75H517.52c1.196-3.768 3.708-5.651 7.536-5.651 1.824 0 3.438.508 4.844 1.525 1.465 1.046 2.347 2.422 2.646 4.126M541.157 444.564v-33.192h-1.794v33.192h1.794M546.899 444.564v-33.192h-1.795v33.192h1.795M570.94 434.92c0-2.72-.911-4.933-2.736-6.638-1.794-1.704-4.066-2.557-6.817-2.557-2.781 0-5.084.912-6.908 2.737-1.794 1.794-2.691 4.081-2.691 6.862 0 2.751.912 5.039 2.736 6.863 1.794 1.824 4.082 2.736 6.863 2.736 1.166 0 2.212-.15 3.14-.448 2.422-.778 4.216-2.273 5.382-4.486l-1.66-.762c-1.016 1.644-2.168 2.736-3.453 3.274-1.017.419-2.153.628-3.41.628-2.451 0-4.38-.748-5.786-2.243-1.345-1.465-2.018-3.454-2.018-5.965h17.359m-2.064-1.75h-15.026c1.196-3.768 3.708-5.651 7.536-5.651 1.824 0 3.438.508 4.844 1.525 1.465 1.046 2.347 2.422 2.646 4.126M604.671 444.564 594.4 428.551c1.286 0 2.467-.15 3.544-.448 1.076-.33 2.003-.823 2.781-1.48.807-.658 1.42-1.496 1.839-2.512.449-1.017.673-2.228.673-3.634 0-1.285-.24-2.422-.718-3.409-.448-.986-1.061-1.809-1.839-2.467-.777-.687-1.704-1.196-2.78-1.525a10.711 10.711 0 0 0-3.41-.538h-7.4v32.026h1.793v-16.013h3.454l10.182 16.013h2.153m-3.32-24.131c0 2.033-.597 3.588-1.793 4.664-1.166 1.077-2.706 1.615-4.62 1.615h-6.056v-12.335h5.562c.957 0 1.854.135 2.692.404.837.24 1.57.613 2.197 1.121.628.479 1.122 1.107 1.48 1.884.36.748.539 1.63.539 2.647M611.085 421.24c-.239-.987-.732-1.48-1.48-1.48-.987.18-1.48.673-1.48 1.48.03.449.18.807.449 1.076.358.27.702.404 1.031.404.987 0 1.48-.493 1.48-1.48m-.583 23.324V426.04h-1.839v18.525h1.84M631 443.264v-2.288c-1.614 1.435-3.498 2.153-5.65 2.153-2.274 0-4.142-.733-5.608-2.198-1.465-1.465-2.198-3.334-2.198-5.607 0-2.302.733-4.186 2.198-5.651 1.436-1.436 3.305-2.153 5.607-2.153 1.017 0 2.093.194 3.23.583l1.256.673 1.166.762v-2.198c-1.406-1.076-3.29-1.615-5.652-1.615-2.751 0-5.039.912-6.863 2.737-1.824 1.824-2.736 4.111-2.736 6.862 0 2.751.912 5.039 2.736 6.863 1.824 1.824 4.112 2.736 6.863 2.736 2.093 0 3.977-.553 5.652-1.66M651.32 434.92c0-2.72-.912-4.933-2.736-6.638-1.794-1.704-4.067-2.557-6.818-2.557-2.781 0-5.084.912-6.908 2.737-1.794 1.794-2.691 4.081-2.691 6.862 0 2.751.912 5.039 2.736 6.863 1.794 1.824 4.082 2.736 6.863 2.736 1.166 0 2.213-.15 3.14-.448 2.422-.778 4.216-2.273 5.382-4.486l-1.66-.762c-1.016 1.644-2.167 2.736-3.453 3.274-1.017.419-2.153.628-3.41.628-2.451 0-4.38-.748-5.785-2.243-1.346-1.465-2.019-3.454-2.019-5.965h17.359m-2.063-1.75H634.23c1.196-3.768 3.708-5.651 7.536-5.651 1.824 0 3.439.508 4.844 1.525 1.465 1.046 2.348 2.422 2.647 4.126M665.314 427.25c-.747-.538-1.42-.912-2.018-1.12-.598-.21-1.36-.315-2.288-.315-.747 0-1.435.284-2.063.852a7.544 7.544 0 0 0-1.525 1.884v-2.512h-1.839v18.525h1.84v-12.2c0-.479.089-1.002.268-1.57.21-.568.479-1.077.808-1.525a4.326 4.326 0 0 1 1.166-1.166c.448-.33.927-.494 1.435-.494.598 0 1.166.105 1.705.314.538.21 1.046.494 1.525.853l.986-1.526M682.583 443.264v-2.288c-1.614 1.435-3.498 2.153-5.651 2.153-2.273 0-4.142-.733-5.607-2.198-1.465-1.465-2.198-3.334-2.198-5.607 0-2.302.733-4.186 2.198-5.651 1.435-1.436 3.304-2.153 5.607-2.153 1.017 0 2.093.194 3.23.583l1.255.673 1.166.762v-2.198c-1.405-1.076-3.289-1.615-5.651-1.615-2.751 0-5.039.912-6.863 2.737-1.824 1.824-2.736 4.111-2.736 6.862 0 2.751.912 5.039 2.736 6.863 1.824 1.824 4.112 2.736 6.863 2.736 2.093 0 3.977-.553 5.651-1.66M701.691 444.61V433.26c0-4.994-2.437-7.49-7.31-7.49-2.572 0-4.411.911-5.518 2.735v-17.134h-1.839v33.192h1.84v-12.066c0-1.495.552-2.69 1.659-3.588 1.076-.897 2.362-1.346 3.857-1.346 3.648 0 5.472 1.96 5.472 5.876v11.17h1.84M724.836 434.92c0-2.72-.912-4.933-2.736-6.638-1.794-1.704-4.067-2.557-6.818-2.557-2.78 0-5.083.912-6.907 2.737-1.794 1.794-2.691 4.081-2.691 6.862 0 2.751.912 5.039 2.736 6.863 1.794 1.824 4.081 2.736 6.862 2.736 1.167 0 2.213-.15 3.14-.448 2.422-.778 4.217-2.273 5.383-4.486l-1.66-.762c-1.017 1.644-2.168 2.736-3.454 3.274-1.016.419-2.153.628-3.409.628-2.452 0-4.38-.748-5.786-2.243-1.345-1.465-2.018-3.454-2.018-5.965h17.358m-2.063-1.75h-15.026c1.196-3.768 3.708-5.651 7.535-5.651 1.824 0 3.44.508 4.845 1.525 1.465 1.046 2.347 2.422 2.646 4.126" style="font-size:44.85449982px;font-variant:normal;font-weight:500;font-stretch:normal;writing-mode:lr-tb;fill:#0f2a52;fill-opacity:1;fill-rule:nonzero;stroke:none;font-family:GeosansLight;-inkscape-font-specification:GeosansLight" transform="translate(-23.735 -371.458)"/></g></svg>