<svg xmlns="http://www.w3.org/2000/svg" viewBox="0 0 385 259.5" xml:space="preserve"><path fill="#26A33E" d="M76.152 51.212a3.705 3.705 0 0 0 3.701-3.701c0-2.04-1.66-3.701-3.7-3.701a3.705 3.705 0 0 0-3.702 3.7 3.705 3.705 0 0 0 3.701 3.702zm18.805.453c2.04 0 3.7-1.66 3.7-3.701 0-2.04-1.66-3.7-3.7-3.7a3.705 3.705 0 0 0-3.701 3.7 3.705 3.705 0 0 0 3.701 3.701zm5.714 10.772a3 3 0 0 0-4.009 1.388c-2.092 4.305-5.464 6.31-10.614 6.31-5.392 0-9.206-2.167-10.467-5.948a3 3 0 1 0-5.691 1.897c2.097 6.294 8.137 10.052 16.158 10.052 7.5 0 12.889-3.26 16.01-9.69a3 3 0 0 0-1.387-4.009zm33.161-3.384c0-23.044-21.862-41.792-48.734-41.792-26.872 0-48.735 18.748-48.735 41.792 0 21.66 19.319 39.522 43.955 41.588 1.161 2.42 2.873 4.335 4.288 5.916 4.716 5.265 13.344 14.913 2.422 45.392-.224.11-.45.21-.67.334-13.8 7.762-30.881-4.654-31.05-4.78-5.529-4.087-13.35-2.963-17.47 2.542-4.117 5.506-3.047 13.281 2.434 17.431.625.474 8.557 6.353 19.924 9.841-.579 2.523-1.028 4.96-1.422 7.105-.862 4.697-1.529 9.35-1.988 12.898-6.22-2.15-10.723-5.419-10.81-5.483-5.53-4.087-13.351-2.964-17.47 2.542-4.118 5.505-3.048 13.28 2.433 17.432 1.05.794 22.675 16.828 46.634 11.168.7 6.51 1.58 10.55 1.692 11.05 1.387 6.186 7.518 10.069 13.709 8.696 5.359-1.19 9.008-5.952 9.008-11.229 0-.816-.088-1.646-.27-2.476-.037-.172-1.985-9.332-1.985-22.698 0-11.988 1.567-27.361 7.484-42.664 5.845-15.114 8.121-27.27 8.121-37.203 0-13.311-4.093-22.621-9.16-29.725 16.35-6.752 27.66-21.103 27.66-37.677zM85.098 82.844c-16.948 0-30.735-10.673-30.735-23.791 0-13.12 13.787-23.792 30.735-23.792 16.947 0 30.734 10.672 30.734 23.792 0 13.118-13.787 23.791-30.734 23.791z"/><path fill="#000000" d="M134.885 99.484c-.32-.046-.643-.017-.954-.017h-10.935c-.692 0-1.154.061-1.154.675 0 .858 3.85 10.985 3.85 26.695 0 11.845-4.082 22.093-4.082 22.706 0 1.166 1.925.982 2.926.982h4.22v.013h9.601V99.484h-3.472zM198.565 76.094v23.263l-32.366.147-.13.024c-3.699.678-6.998 1.89-9.805 3.601-6.915 4.402-10.928 10.973-11.951 19.547-.351 7.416 1.883 13.91 6.63 19.408 4.414 4.797 10.065 7.61 16.829 8.394l.09.01 21.4-.147.136-.027c6.535-1.257 11.845-4.17 15.785-8.658 3.415-4.207 5.472-9.113 6.152-14.627l.012-.091V76.094h-12.782zm0 50.094c-1.202 6.458-4.973 10.228-11.524 11.519h-18.44c-6.46-1.201-10.23-4.977-11.52-11.536-.003-.128-.006-.257-.006-.383 0-3.082.738-5.845 2.19-8.225 2.101-2.867 4.754-4.593 8.1-5.279l31.2-.145v14.05zM284.347 122.908l-.012-.092c-.68-5.511-2.737-10.417-6.114-14.581-3.978-4.533-9.288-7.446-15.824-8.704l-.134-.026-21.555-.148-.1.013c-6.85.886-12.446 3.63-16.63 8.159-4.783 5.572-7.016 12.08-6.674 19.386 1.032 8.884 5.478 15.74 13.222 20.481l.022.014c2.532 1.49 5.966 2.523 10.206 3.067l.095.011h43.498v-12.781h-42.751l-2.562-.565c-3.688-1.5-6.214-3.671-7.623-6.558h52.936v-7.676zm-24.256-10.77c.805.11 1.901.305 3.176.793 2.986 1.144 4.71 3.012 5.125 3.529.422.526.752.97 1.005 1.34h-37.04a12.446 12.446 0 0 1 2.263-2.62c2.566-2.243 5.418-2.848 6.826-3.041 1.388-.081 13.134-.743 18.645 0z"/><path fill="#939393" d="M357.144 122.93c-.992-8.818-5.44-15.678-13.222-20.387l-.016-.01c-2.534-1.491-5.981-2.539-10.246-3.113l-.1-.014H290.01v51.082h12.832v-38.252h13.4v38.252h12.782v-38.216l4.744.11c.184 0 1.103.091 4.409 1.733 3.475 2.327 5.502 5.528 6.194 9.778v26.595h12.783v-27.474l-.01-.084z"/><path fill="#000000" d="M143.06 167.925c-2.019-2.309-4.703-3.77-7.992-4.382l-.04-.008-10.98-.105-.034.004c-3.418.402-6.287 1.816-8.517 4.21-2.254 2.644-3.387 5.705-3.385 9.117 0 .225.007.457.017.688.504 4.35 2.537 7.696 6.03 9.922 1.453.88 3.114 1.481 4.978 1.815l.044.006 16.914.078c-.03.38-.08.73-.15 1.055-.739 2.78-2.477 4.462-5.452 5.22l-22.441.079v6.062h22.282c4.487-.506 7.938-2.744 10.257-6.609.77-1.303 1.275-3.023 1.556-5.17l.004-.03v-14.502c-.338-2.864-1.369-5.34-3.09-7.45zm-9.104 1.57s3.646 1.518 4.217 2.106c1.41 1.453 1.808 3.192 1.94 4.05v7.556l-16.418-.076c-1.776-.362-3.198-1.29-4.344-2.847-.768-1.244-1.165-2.697-1.165-4.373 0-.078.002-.16.004-.245.073-.585.396-2.576 2.111-4.234a7.182 7.182 0 0 1 4.037-1.937c4.432-.042 9.618 0 9.618 0zM199.701 163.323c-2.157.278-3.892.786-5.213 1.563-3.959 2.412-6.247 5.934-6.762 10.417l.497.058h-.501v14.045h6.1v-13.714c-.013-.21.218-1.09.713-2.372 1.402-2.373 3.257-3.626 5.717-3.906l21.93.003v-6.099h-22.448l-.033.005zM237.788 163.318l-.035.004c-2.158.278-3.896.786-5.215 1.564-3.96 2.414-6.246 5.933-6.76 10.417l.497.06h-.502v14.044h6.1v-13.715c-.013-.21.22-1.088.711-2.368 1.401-2.375 3.26-3.63 5.719-3.91l21.932.004v-6.1h-22.447zM351.521 163.32h6.1v26.087h-6.1zM183.795 177.242c.015-.276.034-.554.034-.826.004-3.23-1.035-6.115-3.087-8.58l-.383.32.362-.342c-2.468-2.631-5.437-4.145-8.835-4.493l-21.631-.004v6.096l21.766.08c2.472.646 4.09 1.908 5.005 3.872h-27.204l-.068.42a17.523 17.523 0 0 0-.247 2.855c0 1.294.172 2.484.518 3.567 1.936 5.342 5.831 8.467 11.444 9.195l.037.006H183.795v-12.166zm-22.444 5.99s-2.79-.837-4.162-2.498a6.713 6.713 0 0 1-.825-1.27h21.387v3.827c-8.282-.084-16.4-.059-16.4-.059zM310.661 176.561c0-.046.006-.094.006-.141 0-.05-.006-.099-.006-.149v-.133h-.005c-.056-3.117-1.084-5.91-3.076-8.302l-.383.321.362-.345c-2.467-2.628-5.436-4.144-8.834-4.493l-21.633-.002v6.096l21.767.081c2.472.645 4.09 1.907 5.004 3.872h-27.2l-.07.417c-.17 1.001-.25 1.954-.25 2.858 0 1.292.173 2.482.52 3.567 1.935 5.34 5.831 8.467 11.445 9.194l.035.005h21.534v-.026h.784v-12.82zm-6.044 2.902v3.828l-16.43-.059c-.91-.215-2.772-.804-4.163-2.5a6.86 6.86 0 0 1-.824-1.27c6.808-.07 14.609.072 21.417 0M348.701 176.817c.004-.133.017-.271.017-.404.004-3.229-1.035-6.114-3.085-8.577l-.385.32.364-.343c-2.468-2.63-5.438-4.145-8.837-4.493l-21.631-.002v6.096l21.768.08c2.47.646 4.089 1.907 5.003 3.872h-27.203l-.07.417a17.586 17.586 0 0 0-.245 2.857c-.002 1.293.17 2.483.518 3.568 1.932 5.34 5.832 8.466 11.445 9.195l.036.004h21.534v-.04h.771v-12.55zm-6.044 2.647v3.827l-16.419-.059c-.908-.214-2.77-.802-4.16-2.498a6.845 6.845 0 0 1-.824-1.27c6.547-.058 14.856.057 21.403 0"/></svg>